#define flag_width 16
#define flag_height 16
static unsigned char flag_bits[] = {
   0x00, 0x00, 0x30, 0x00, 0xf0, 0x00, 0xf0, 0x03, 0xf0, 0x0f, 0xf0, 0x07,
   0xf0, 0x01, 0x30, 0x00, 0x10, 0x00, 0x10, 0x00, 0x10, 0x00, 0x10, 0x00,
   0x10, 0x00, 0x10, 0x00, 0x10, 0x00, 0x00, 0x00 };
