solid 
facet normal -1 0 0
 outer loop
  vertex -0.100000024 0.5 0.100000024
  vertex -0.100000024 1 0.100000024
  vertex -0.100000024 1 -0.100000024
 endloop
endfacet
facet normal -1 0 0
 outer loop
  vertex -0.100000024 0.5 0.100000024
  vertex -0.100000024 1 -0.100000024
  vertex -0.100000024 0.5 -0.100000024
 endloop
endfacet
facet normal -0 -0 -1
 outer loop
  vertex -0.100000024 0.5 -0.100000024
  vertex -0.100000024 1 -0.100000024
  vertex 0.100000024 1 -0.100000024
 endloop
endfacet
facet normal -0 0 -1
 outer loop
  vertex -0.100000024 0.5 -0.100000024
  vertex 0.100000024 1 -0.100000024
  vertex 0.90000004 0.5 -0.100000024
 endloop
endfacet
facet normal 0.52999896 0.8479983 0
 outer loop
  vertex 0.90000004 0.5 -0.100000024
  vertex 0.100000024 1 -0.100000024
  vertex 0.100000024 1 0.100000024
 endloop
endfacet
facet normal 0.52999896 0.8479983 0
 outer loop
  vertex 0.90000004 0.5 -0.100000024
  vertex 0.100000024 1 0.100000024
  vertex 0.90000004 0.5 0.100000024
 endloop
endfacet
facet normal -0 0 1
 outer loop
  vertex 0.90000004 0.5 0.100000024
  vertex 0.100000024 1 0.100000024
  vertex -0.100000024 1 0.100000024
 endloop
endfacet
facet normal -0 0 1
 outer loop
  vertex 0.90000004 0.5 0.100000024
  vertex -0.100000024 1 0.100000024
  vertex -0.100000024 0.5 0.100000024
 endloop
endfacet
facet normal -0 -1 -0
 outer loop
  vertex -0.100000024 -1 -0.100000024
  vertex 0.100000024 -1 -0.100000024
  vertex 0.100000024 -1 0.100000024
 endloop
endfacet
facet normal 0 -1 -0
 outer loop
  vertex -0.100000024 -1 -0.100000024
  vertex 0.100000024 -1 0.100000024
  vertex -0.100000024 -1 0.100000024
 endloop
endfacet
facet normal -0 1 0
 outer loop
  vertex 0.100000024 1 -0.100000024
  vertex -0.100000024 1 -0.100000024
  vertex -0.100000024 1 0.100000024
 endloop
endfacet
facet normal 0 1 0
 outer loop
  vertex 0.100000024 1 -0.100000024
  vertex -0.100000024 1 0.100000024
  vertex 0.100000024 1 0.100000024
 endloop
endfacet
facet normal -0 0 1
 outer loop
  vertex 0.100000024 -1 0.100000024
  vertex 0.100000024 0 0.100000024
  vertex -0.100000024 0 0.100000024
 endloop
endfacet
facet normal -0 0 1
 outer loop
  vertex 0.100000024 -1 0.100000024
  vertex -0.100000024 0 0.100000024
  vertex -0.100000024 -1 0.100000024
 endloop
endfacet
facet normal 1 0 0
 outer loop
  vertex 0.100000024 -1 -0.100000024
  vertex 0.100000024 0 -0.100000024
  vertex 0.100000024 0 0.100000024
 endloop
endfacet
facet normal 1 -0 0
 outer loop
  vertex 0.100000024 -1 -0.100000024
  vertex 0.100000024 0 0.100000024
  vertex 0.100000024 -1 0.100000024
 endloop
endfacet
facet normal -0 -0 -1
 outer loop
  vertex -0.100000024 -1 -0.100000024
  vertex -0.100000024 0 -0.100000024
  vertex 0.100000024 0 -0.100000024
 endloop
endfacet
facet normal -0 0 -1
 outer loop
  vertex -0.100000024 -1 -0.100000024
  vertex 0.100000024 0 -0.100000024
  vertex 0.100000024 -1 -0.100000024
 endloop
endfacet
facet normal -1 0 0
 outer loop
  vertex -0.100000024 -1 0.100000024
  vertex -0.100000024 0 0.100000024
  vertex -0.100000024 0 -0.100000024
 endloop
endfacet
facet normal -1 0 0
 outer loop
  vertex -0.100000024 -1 0.100000024
  vertex -0.100000024 0 -0.100000024
  vertex -0.100000024 -1 -0.100000024
 endloop
endfacet
facet normal -0 0 1
 outer loop
  vertex 0.100000024 0 0.100000024
  vertex 0.90000004 0.5 0.100000024
  vertex -0.100000024 0.5 0.100000024
 endloop
endfacet
facet normal -0 0 1
 outer loop
  vertex 0.100000024 0 0.100000024
  vertex -0.100000024 0.5 0.100000024
  vertex -0.100000024 0 0.100000024
 endloop
endfacet
facet normal 0.52999896 -0.8479983 0
 outer loop
  vertex 0.100000024 0 -0.100000024
  vertex 0.90000004 0.5 -0.100000024
  vertex 0.90000004 0.5 0.100000024
 endloop
endfacet
facet normal 0.52999896 -0.8479983 0
 outer loop
  vertex 0.100000024 0 -0.100000024
  vertex 0.90000004 0.5 0.100000024
  vertex 0.100000024 0 0.100000024
 endloop
endfacet
facet normal -0 -0 -1
 outer loop
  vertex -0.100000024 0 -0.100000024
  vertex -0.100000024 0.5 -0.100000024
  vertex 0.90000004 0.5 -0.100000024
 endloop
endfacet
facet normal -0 0 -1
 outer loop
  vertex -0.100000024 0 -0.100000024
  vertex 0.90000004 0.5 -0.100000024
  vertex 0.100000024 0 -0.100000024
 endloop
endfacet
facet normal -1 0 0
 outer loop
  vertex -0.100000024 0 0.100000024
  vertex -0.100000024 0.5 0.100000024
  vertex -0.100000024 0.5 -0.100000024
 endloop
endfacet
facet normal -1 0 0
 outer loop
  vertex -0.100000024 0 0.100000024
  vertex -0.100000024 0.5 -0.100000024
  vertex -0.100000024 0 -0.100000024
 endloop
endfacet
endsolid 
